HIERARCHY
ROOT Hips
{
	OFFSET 0.000000 83.214638 0.000000
	CHANNELS 6 Xposition Yposition Zposition Xrotation Yrotation Zrotation
	JOINT Pelvis
	{
		OFFSET 0.000000 0.000000 0.000000
		CHANNELS 3 Xrotation Yrotation Zrotation
		JOINT LeftUpLeg
		{
			OFFSET 8.479700 -4.795502 -0.379100
			CHANNELS 3 Xrotation Yrotation Zrotation
			JOINT LeftLeg
			{
				OFFSET 0.024144 -32.555107 0.112900
				CHANNELS 3 Xrotation Yrotation Zrotation
				JOINT LeftFoot
				{
					OFFSET -0.024144 -32.638630 -3.012600
					CHANNELS 3 Xrotation Yrotation Zrotation
					JOINT LeftToeBase
					{
						OFFSET 0.970200 -13.225400 11.864200
						CHANNELS 3 Xrotation Yrotation Zrotation
						End Site
						{
							OFFSET 0.000000 12.319262 0.000000
						}
					}
					JOINT LFootTongue
					{
						OFFSET 1.142400 -1.059800 6.665200
						CHANNELS 3 Xrotation Yrotation Zrotation
						End Site
						{
							OFFSET 0.000000 12.319262 0.000000
						}
					}
				}
				JOINT LeftPantLeg
				{
					OFFSET 0.918482 -16.533964 -2.284700
					CHANNELS 3 Xrotation Yrotation Zrotation
					End Site
					{
						OFFSET 0.350399 24.744368 0.000000
					}
				}
			}
		}
		JOINT RightUpLeg
		{
			OFFSET -8.479700 -4.795502 -0.379100
			CHANNELS 3 Xrotation Yrotation Zrotation
			JOINT RightLeg
			{
				OFFSET -0.023144 -32.555092 0.112900
				CHANNELS 3 Xrotation Yrotation Zrotation
				JOINT RightFoot
				{
					OFFSET 0.023144 -32.638641 -3.012700
					CHANNELS 3 Xrotation Yrotation Zrotation
					JOINT RightToeBase
					{
						OFFSET -0.970200 -13.225400 11.864200
						CHANNELS 3 Xrotation Yrotation Zrotation
						End Site
						{
							OFFSET 0.000000 12.319244 0.000000
						}
					}
					JOINT RFootTongue
					{
						OFFSET -1.142200 -1.059800 6.665200
						CHANNELS 3 Xrotation Yrotation Zrotation
						End Site
						{
							OFFSET 0.000000 12.319243 0.000000
						}
					}
				}
				JOINT RightPantLeg
				{
					OFFSET -0.919482 -16.533978 -2.284800
					CHANNELS 3 Xrotation Yrotation Zrotation
					End Site
					{
						OFFSET -0.350400 24.744419 0.000000
					}
				}
			}
		}
	}
	JOINT Spine
	{
		OFFSET 0.000000 7.722000 1.166200
		CHANNELS 3 Xrotation Yrotation Zrotation
		JOINT Spine1
		{
			OFFSET 0.000000 12.024101 0.248800
			CHANNELS 3 Xrotation Yrotation Zrotation
			JOINT Spine2
			{
				OFFSET 0.000000 11.502998 -0.491200
				CHANNELS 3 Xrotation Yrotation Zrotation
				JOINT Neck
				{
					OFFSET 0.000000 18.430702 -3.123100
					CHANNELS 3 Xrotation Yrotation Zrotation
					JOINT Head
					{
						OFFSET 0.000000 9.051102 1.034000
						CHANNELS 3 Xrotation Yrotation Zrotation
						JOINT HairB
						{
							OFFSET 0.208400 24.786102 24.822300
							CHANNELS 3 Xrotation Yrotation Zrotation
							End Site
							{
								OFFSET 0.000000 32.263779 0.000000
							}
						}
						JOINT HairA
						{
							OFFSET -7.081100 24.428299 23.196600
							CHANNELS 3 Xrotation Yrotation Zrotation
							End Site
							{
								OFFSET 0.000000 32.263779 0.000000
							}
						}
						JOINT Hat
						{
							OFFSET 16.728800 15.048294 -15.439601
							CHANNELS 3 Xrotation Yrotation Zrotation
							End Site
							{
								OFFSET 0.000000 32.263779 0.000000
							}
						}
					}
				}
				JOINT LeftShoulder
				{
					OFFSET 6.197800 13.665199 -4.064700
					CHANNELS 3 Xrotation Yrotation Zrotation
					JOINT LeftArm
					{
						OFFSET 7.778100 -0.187103 -1.709300
						CHANNELS 3 Xrotation Yrotation Zrotation
						JOINT LeftForeArm
						{
							OFFSET 22.049376 0.000000 0.000000
							CHANNELS 3 Xrotation Yrotation Zrotation
							JOINT LeftHand
							{
								OFFSET 23.009392 0.000000 0.000000
								CHANNELS 3 Xrotation Yrotation Zrotation
								JOINT LeftHandThumb1
								{
									OFFSET 3.507191 -2.063065 3.133727
									CHANNELS 3 Xrotation Yrotation Zrotation
									JOINT LeftHandThumb2
									{
										OFFSET 3.101337 -1.790558 1.790558
										CHANNELS 3 Xrotation Yrotation Zrotation
										JOINT LeftHandThumb3
										{
											OFFSET 3.058640 -1.765907 1.765906
											CHANNELS 3 Xrotation Yrotation Zrotation
											End Site
											{
												OFFSET -0.415260 3.926476 -0.049563
											}
										}
									}
								}
								JOINT LeftHandIndex1
								{
									OFFSET 11.334419 -0.901459 3.706815
									CHANNELS 3 Xrotation Yrotation Zrotation
									JOINT LeftHandIndex2
									{
										OFFSET 3.283112 0.000000 0.000000
										CHANNELS 3 Xrotation Yrotation Zrotation
										JOINT LeftHandIndex3
										{
											OFFSET 3.323853 0.000000 0.000000
											CHANNELS 3 Xrotation Yrotation Zrotation
											End Site
											{
												OFFSET -1.135597 3.097809 0.402452
											}
										}
									}
								}
								JOINT LeftHandMiddle1
								{
									OFFSET 11.335861 0.000000 0.000000
									CHANNELS 3 Xrotation Yrotation Zrotation
									JOINT LeftHandMiddle2
									{
										OFFSET 3.410492 0.000000 0.000000
										CHANNELS 3 Xrotation Yrotation Zrotation
										JOINT LeftHandMiddle3
										{
											OFFSET 3.312172 0.000000 0.000000
											CHANNELS 3 Xrotation Yrotation Zrotation
											End Site
											{
												OFFSET -1.150200 3.080154 0.400270
											}
										}
									}
								}
								JOINT LeftHandRing1
								{
									OFFSET 11.514786 -0.013176 -3.003090
									CHANNELS 3 Xrotation Yrotation Zrotation
									JOINT LeftHandRing2
									{
										OFFSET 3.053307 0.000000 0.000000
										CHANNELS 3 Xrotation Yrotation Zrotation
										JOINT LeftHandRing3
										{
											OFFSET 3.295807 0.000000 0.000000
											CHANNELS 3 Xrotation Yrotation Zrotation
											End Site
											{
												OFFSET -1.281006 3.013344 0.375733
											}
										}
									}
								}
								JOINT LeftHandPinky1
								{
									OFFSET 10.518692 -0.960396 -5.730441
									CHANNELS 3 Xrotation Yrotation Zrotation
									JOINT LeftHandPinky2
									{
										OFFSET 2.861649 0.000000 0.000000
										CHANNELS 3 Xrotation Yrotation Zrotation
										JOINT LeftHandPinky3
										{
											OFFSET 2.863380 0.000000 0.000000
											CHANNELS 3 Xrotation Yrotation Zrotation
											End Site
											{
												OFFSET -0.843597 2.711159 0.369971
											}
										}
									}
								}
							}
							JOINT LSleeve
							{
								OFFSET 6.676277 -0.344902 -1.011730
								CHANNELS 3 Xrotation Yrotation Zrotation
								End Site
								{
									OFFSET 0.000000 14.885353 0.000000
								}
							}
						}
					}
				}
				JOINT RightShoulder
				{
					OFFSET -6.197800 13.665199 -4.064700
					CHANNELS 3 Xrotation Yrotation Zrotation
					JOINT RightArm
					{
						OFFSET -7.778100 -0.187103 -1.709300
						CHANNELS 3 Xrotation Yrotation Zrotation
						JOINT RightForeArm
						{
							OFFSET -22.049376 0.000000 0.000000
							CHANNELS 3 Xrotation Yrotation Zrotation
							JOINT RightHand
							{
								OFFSET -23.009392 0.000000 0.000000
								CHANNELS 3 Xrotation Yrotation Zrotation
								JOINT RightHandThumb1
								{
									OFFSET -3.507191 -2.063065 3.133727
									CHANNELS 3 Xrotation Yrotation Zrotation
									JOINT RightHandThumb2
									{
										OFFSET -3.101337 -1.790558 1.790558
										CHANNELS 3 Xrotation Yrotation Zrotation
										JOINT RightHandThumb3
										{
											OFFSET -3.058640 -1.765907 1.765906
											CHANNELS 3 Xrotation Yrotation Zrotation
											End Site
											{
												OFFSET 0.415260 3.926476 -0.049563
											}
										}
									}
								}
								JOINT RightHandIndex1
								{
									OFFSET -11.334419 -0.901459 3.706815
									CHANNELS 3 Xrotation Yrotation Zrotation
									JOINT RightHandIndex2
									{
										OFFSET -3.283112 0.000000 0.000000
										CHANNELS 3 Xrotation Yrotation Zrotation
										JOINT RightHandIndex3
										{
											OFFSET -3.323853 0.000000 0.000000
											CHANNELS 3 Xrotation Yrotation Zrotation
											End Site
											{
												OFFSET 1.135597 3.097809 0.402452
											}
										}
									}
								}
								JOINT RightHandMiddle1
								{
									OFFSET -11.335861 0.000000 0.000000
									CHANNELS 3 Xrotation Yrotation Zrotation
									JOINT RightHandMiddle2
									{
										OFFSET -3.410492 0.000000 0.000000
										CHANNELS 3 Xrotation Yrotation Zrotation
										JOINT RightHandMiddle3
										{
											OFFSET -3.312172 0.000000 0.000000
											CHANNELS 3 Xrotation Yrotation Zrotation
											End Site
											{
												OFFSET 1.150200 3.080154 0.400270
											}
										}
									}
								}
								JOINT RightHandRing1
								{
									OFFSET -11.514786 -0.013176 -3.003090
									CHANNELS 3 Xrotation Yrotation Zrotation
									JOINT RightHandRing2
									{
										OFFSET -3.053307 0.000000 0.000000
										CHANNELS 3 Xrotation Yrotation Zrotation
										JOINT RightHandRing3
										{
											OFFSET -3.295807 0.000000 0.000000
											CHANNELS 3 Xrotation Yrotation Zrotation
											End Site
											{
												OFFSET 1.281006 3.013344 0.375733
											}
										}
									}
								}
								JOINT RightHandPinky1
								{
									OFFSET -10.518692 -0.960396 -5.730441
									CHANNELS 3 Xrotation Yrotation Zrotation
									JOINT RightHandPinky2
									{
										OFFSET -2.861649 0.000000 0.000000
										CHANNELS 3 Xrotation Yrotation Zrotation
										JOINT RightHandPinky3
										{
											OFFSET -2.863380 0.000000 0.000000
											CHANNELS 3 Xrotation Yrotation Zrotation
											End Site
											{
												OFFSET 0.843597 2.711159 0.369971
											}
										}
									}
								}
							}
							JOINT RSleeve
							{
								OFFSET -6.676277 -0.344902 -1.011730
								CHANNELS 3 Xrotation Yrotation Zrotation
								End Site
								{
									OFFSET 0.000000 14.885353 0.000000
								}
							}
						}
					}
				}
				JOINT Backpack
				{
					OFFSET 0.000000 -2.471497 36.677502
					CHANNELS 3 Xrotation Yrotation Zrotation
					End Site
					{
						OFFSET 0.000000 20.427315 0.000000
					}
				}
				JOINT Hood
				{
					OFFSET 0.000000 18.754097 -10.431000
					CHANNELS 3 Xrotation Yrotation Zrotation
					JOINT Hood1
					{
						OFFSET 0.000000 -5.011002 -7.685901
						CHANNELS 3 Xrotation Yrotation Zrotation
						End Site
						{
							OFFSET 0.000000 9.175140 0.000000
						}
					}
				}
				JOINT LHoodieString
				{
					OFFSET 5.250500 16.397697 3.089900
					CHANNELS 3 Xrotation Yrotation Zrotation
					JOINT LHoodieString1
					{
						OFFSET 0.257700 -6.364304 3.694600
						CHANNELS 3 Xrotation Yrotation Zrotation
						JOINT LHoodieString2
						{
							OFFSET 0.000000 -9.643799 2.679100
							CHANNELS 3 Xrotation Yrotation Zrotation
							End Site
							{
								OFFSET 0.000000 10.009018 0.000000
							}
						}
					}
				}
				JOINT RHoodieString
				{
					OFFSET -5.250500 16.397697 3.089900
					CHANNELS 3 Xrotation Yrotation Zrotation
					JOINT RHoodieString1
					{
						OFFSET -0.257700 -6.364304 3.694600
						CHANNELS 3 Xrotation Yrotation Zrotation
						JOINT RHoodieString2
						{
							OFFSET 0.000000 -9.643799 2.679100
							CHANNELS 3 Xrotation Yrotation Zrotation
							End Site
							{
								OFFSET 0.000000 10.009018 0.000000
							}
						}
					}
				}
			}
			JOINT LBackpack_Strap
			{
				OFFSET 15.223200 -7.719803 -6.610900
				CHANNELS 3 Xrotation Yrotation Zrotation
				End Site
				{
					OFFSET 0.000000 16.040596 0.000000
				}
			}
			JOINT RBackpack_Strap
			{
				OFFSET -15.223000 -7.719803 -6.610900
				CHANNELS 3 Xrotation Yrotation Zrotation
				End Site
				{
					OFFSET 0.000000 16.040596 0.000000
				}
			}
		}
	}
	JOINT BoyFacialAnim_Joint
	{
		OFFSET 1.000000 -82.208099 -1.550900
		CHANNELS 3 Xrotation Yrotation Zrotation
		End Site
		{
			OFFSET 0.000000 30.012791 0.000000
		}
	}
}
MOTION
Frames: 4
Frame Time: 0.033333
0.829089 74.989304 -0.424577 9.545352 -61.619344 10.152429 0.000000 -0.000000 -0.000000 -36.690499 11.888614 23.486039 36.107798 -6.745301 1.195818 -5.486693 -2.268800 -16.038848 -0.000000 0.000000 -0.000000 -0.000000 0.000000 0.000000 0.000000 0.000002 -0.000001 -31.263746 -19.564221 -32.362823 35.165584 3.482118 -4.082674 -11.010986 0.859210 22.483871 -0.000000 -0.000000 -0.000000 -0.000000 -0.000000 -0.000000 -0.000001 0.000000 0.000002 15.063716 -0.324084 -4.291276 5.872404 0.563933 -2.798210 5.868715 0.648181 -2.860165 -3.632888 1.437156 3.747499 -20.005957 54.836761 2.407376 -0.000000 -0.000000 0.000000 -0.000000 -0.000000 0.000000 -0.000000 -0.000000 0.000000 1.828096 -3.192676 -12.271572 -39.387396 26.350469 -34.911102 0.429368 -46.808482 0.416181 -10.315077 -0.130707 0.362999 40.109934 -15.297156 -0.360500 5.639820 28.097933 11.338824 0.000000 0.000002 0.000001 6.882260 2.840073 -61.140404 8.248006 7.640064 -89.897898 -0.000002 -0.000001 -0.000002 -2.345507 4.688861 -62.655204 8.754124 9.897074 -87.051307 0.000002 -0.000003 0.000001 -9.042452 10.045690 -60.766171 8.524103 9.508835 -66.893035 0.000004 0.000003 -0.000002 -17.946903 14.755005 -51.485853 8.868456 8.667076 -84.811975 -0.000002 0.000002 0.000000 0.000002 -0.000000 0.000002 0.632610 7.257342 8.700398 7.936006 -9.680152 53.429903 -22.867432 36.194692 17.955461 -27.369931 10.432899 -17.813543 -2.346177 -6.100552 10.731428 2.364075 -23.806297 -8.771046 0.000001 0.000000 0.000005 -0.054745 0.532106 0.738728 0.019780 -0.087314 5.078504 -0.000001 -0.000001 0.000005 0.348248 -5.918531 2.583823 1.432614 -4.204223 24.052101 0.000002 0.000001 -0.000003 1.205834 -11.756067 4.154781 1.794841 -3.771865 26.865395 0.000001 0.000000 0.000002 2.126227 -19.166855 11.319977 3.354771 -2.122237 18.828547 -0.000000 -0.000001 -0.000002 -0.000001 -0.000002 -0.000001 0.000001 -0.000000 -0.000000 0.000001 -0.000000 -0.000000 0.000001 -0.000000 -0.000000 0.000001 -0.000000 -0.000000 0.000001 -0.000000 -0.000000 -0.000001 0.000003 -0.000002 0.000001 -0.000000 -0.000000 0.000001 -0.000000 -0.000000 -0.000001 0.000003 -0.000002 0.000001 -0.000000 -0.000000 0.000001 -0.000000 -0.000000 0.000000 -0.000000 -0.000000 
0.833560 74.987434 -0.428551 9.390646 -61.629097 10.024834 0.000000 -0.000000 0.000000 -36.626753 11.908789 23.488271 36.114355 -6.765765 1.194215 -5.488409 -2.271026 -16.031767 0.000000 0.000002 -0.000000 0.000000 0.000002 -0.000000 -0.000000 -0.000003 0.000000 -31.214907 -19.575756 -32.388911 35.187239 3.505295 -4.080901 -11.021612 0.860122 22.476133 -0.000000 -0.000000 0.000000 -0.000000 -0.000000 0.000000 -0.000001 -0.000000 -0.000001 15.063991 -0.324183 -4.291164 5.848436 0.563975 -2.798226 5.834029 0.630793 -2.857532 -3.584860 1.444755 3.704593 -19.898382 54.838448 2.337353 0.000000 0.000000 0.000000 0.000000 0.000000 0.000000 0.000000 0.000000 0.000000 1.773142 -3.124861 -12.245041 -39.235933 26.332288 -34.970832 0.662773 -46.936288 0.599000 -10.333822 -0.009686 0.522321 40.109938 -15.297158 -0.360506 5.639820 28.097930 11.338829 0.000000 0.000001 0.000001 6.882257 2.840079 -61.140404 8.248002 7.640064 -89.897898 -0.000000 0.000002 -0.000001 -2.345510 4.688859 -62.655210 8.754122 9.897072 -87.051314 0.000001 0.000002 -0.000001 -9.042458 10.045690 -60.766171 8.524101 9.508829 -66.893035 -0.000001 -0.000000 -0.000000 -17.946908 14.755005 -51.485850 8.868446 8.667084 -84.811982 0.000002 0.000003 -0.000001 0.000002 0.000002 -0.000002 0.510526 7.162754 8.691271 8.153282 -9.628251 53.442685 -22.757818 36.329001 17.923654 -27.369931 10.416962 -18.055962 -2.346174 -6.100516 10.731451 2.364055 -23.806320 -8.771080 0.000000 0.000001 0.000000 -0.054740 0.532066 0.735036 0.019793 -0.087300 5.078535 -0.000001 0.000001 0.000002 0.348222 -5.918524 2.583811 1.432607 -4.204218 24.052100 0.000002 0.000001 -0.000000 1.205812 -11.756020 4.154775 1.794847 -3.771920 26.865460 0.000000 0.000003 0.000001 2.126245 -19.166827 11.319941 3.354785 -2.122218 18.828562 0.000001 0.000000 -0.000001 -0.000003 -0.000000 -0.000001 -0.000003 0.000001 -0.000001 -0.000003 0.000001 -0.000001 -0.000003 0.000001 -0.000001 -0.000003 0.000001 -0.000001 -0.000003 0.000001 -0.000000 -0.000003 -0.000001 0.000000 -0.000003 0.000001 -0.000001 -0.000003 0.000001 -0.000000 -0.000003 -0.000001 0.000000 0.000004 0.000002 -0.000001 0.000004 0.000002 -0.000001 0.000000 -0.000000 0.000000 
0.837334 74.980469 -0.433876 9.219159 -61.639186 9.883319 0.000000 0.000000 0.000000 -36.565862 11.924512 23.494630 36.141864 -6.786813 1.192456 -5.499840 -2.274541 -16.025866 0.000000 0.000000 0.000000 0.000000 0.000000 0.000000 0.000000 0.000002 0.000002 -31.170811 -19.582011 -32.420412 35.236505 3.534754 -4.080881 -11.046765 0.855225 22.467277 -0.000000 -0.000000 0.000000 -0.000000 -0.000000 0.000000 0.000000 0.000000 -0.000002 15.063950 -0.324371 -4.290835 5.836951 0.563642 -2.798153 5.808678 0.617575 -2.855510 -3.530243 1.441468 3.656777 -19.784632 54.839456 2.259578 -0.000000 0.000000 -0.000000 -0.000000 0.000000 -0.000000 -0.000000 0.000000 -0.000000 1.727403 -3.071027 -12.224550 -39.112416 26.291603 -35.004129 0.757055 -47.035900 0.675295 -10.343848 0.075571 0.680455 40.109938 -15.297160 -0.360498 5.639821 28.097928 11.338826 0.000001 -0.000000 -0.000001 6.882260 2.840075 -61.140404 8.248008 7.640067 -89.897898 -0.000002 0.000000 -0.000005 -2.345503 4.688859 -62.655204 8.754125 9.897071 -87.051301 0.000003 -0.000001 0.000000 -9.042452 10.045689 -60.766171 8.524103 9.508829 -66.893035 -0.000001 -0.000000 -0.000002 -17.946897 14.755002 -51.485850 8.868453 8.667078 -84.811982 -0.000003 -0.000001 -0.000000 -0.000001 0.000000 0.000001 0.407981 7.083604 8.682408 8.369203 -9.564728 53.441999 -22.733885 36.467220 17.945929 -27.375287 10.377864 -18.320867 -2.344326 -6.104778 10.730024 2.366679 -23.814667 -8.772811 0.000000 0.000000 0.000004 -0.054596 0.532158 0.721171 0.019767 -0.087332 5.067115 0.000000 -0.000001 0.000003 0.347767 -5.918551 2.571162 1.431111 -4.204448 24.041286 0.000002 0.000002 -0.000003 1.203605 -11.756267 4.143882 1.793824 -3.771376 26.856410 -0.000000 -0.000001 0.000000 2.124694 -19.167007 11.315274 3.354774 -2.122217 18.828535 0.000001 0.000000 0.000000 -0.000002 -0.000001 -0.000002 -0.000001 0.000000 0.000001 -0.000001 0.000000 0.000001 -0.000001 0.000000 0.000001 -0.000001 0.000000 0.000001 -0.000001 0.000000 0.000002 0.000001 0.000000 0.000001 -0.000001 0.000000 0.000001 -0.000001 0.000000 0.000002 0.000001 0.000000 0.000001 0.000001 0.000000 0.000000 0.000001 0.000000 0.000000 0.000000 0.000000 0.000000 
0.840435 74.968681 -0.440454 9.032324 -61.649328 9.729059 -0.000000 0.000001 0.000000 -36.508625 11.937456 23.504385 36.189604 -6.816532 1.191891 -5.520512 -2.272228 -16.020084 0.000000 0.000000 -0.000000 0.000000 0.000000 0.000000 -0.000001 -0.000002 0.000001 -31.131808 -19.583588 -32.456178 35.311836 3.565765 -4.085222 -11.085519 0.848251 22.459793 -0.000000 0.000000 0.000000 -0.000000 0.000000 0.000000 0.000002 0.000000 0.000001 15.075500 -0.322984 -4.290648 5.838946 0.563386 -2.798121 5.795534 0.611621 -2.854615 -3.475952 1.430229 3.606401 -19.660421 54.841467 2.173588 0.000001 0.000000 0.000000 0.000001 0.000000 0.000000 0.000001 0.000000 0.000000 1.694673 -3.032447 -12.209771 -39.014321 26.244403 -35.016846 0.740087 -47.104943 0.667259 -10.346741 0.112823 0.828926 40.109927 -15.297163 -0.360504 5.639821 28.097925 11.338826 0.000000 0.000001 -0.000000 6.882256 2.840076 -61.140404 8.248004 7.640065 -89.897905 -0.000001 0.000001 -0.000002 -2.345510 4.688860 -62.655204 8.754123 9.897074 -87.051307 0.000004 -0.000001 0.000000 -9.042457 10.045691 -60.766171 8.524106 9.508829 -66.893035 -0.000001 0.000001 -0.000002 -17.946903 14.755002 -51.485853 8.868452 8.667077 -84.811982 0.000003 -0.000001 -0.000000 0.000004 0.000001 -0.000001 0.326674 7.020789 8.674707 8.568934 -9.501775 53.429513 -22.780472 36.605979 18.018720 -27.376008 10.348665 -18.583323 -2.341910 -6.116755 10.721877 2.371025 -23.828443 -8.775658 0.000000 -0.000000 0.000003 -0.054402 0.532188 0.700068 0.019778 -0.087341 5.049504 -0.000003 0.000002 0.000002 0.346972 -5.916951 2.552022 1.428818 -4.204889 24.024880 0.000003 -0.000001 -0.000002 1.200359 -11.756618 4.127868 1.791657 -3.769428 26.842843 -0.000001 -0.000000 0.000002 2.120862 -19.167422 11.303671 3.354549 -2.122495 18.823959 -0.000001 -0.000001 -0.000002 -0.000001 -0.000000 -0.000001 -0.000000 0.000002 -0.000001 -0.000000 0.000002 -0.000001 -0.000000 0.000002 -0.000001 -0.000000 0.000002 -0.000001 -0.000000 0.000002 -0.000000 -0.000001 0.000000 0.000001 -0.000000 0.000002 -0.000001 -0.000000 0.000002 -0.000000 -0.000001 0.000000 0.000001 0.000003 -0.000002 0.000003 0.000003 -0.000002 0.000003 -0.000000 0.000001 0.000000 
